<svg width="18" height="18" viewBox="0 0 18 18" fill="none" xmlns="http://www.w3.org/2000/svg">
<path d="M4.5 4C4.224 4 4 3.8208 4 3.6V0.4C4 0.1792 4.224 0 4.5 0C4.776 0 5 0.1792 5 0.4V3.6C5 3.8208 4.776 4 4.5 4Z" fill="#E6E1DD"/>
<path d="M13.5 4C13.224 4 13 3.8208 13 3.6V0.4C13 0.1792 13.224 0 13.5 0C13.776 0 14 0.1792 14 0.4V3.6C14 3.8208 13.776 4 13.5 4Z" fill="#E6E1DD"/>
<path d="M18 5.63636V3.70455C18 2.21318 16.8225 1 15.375 1H15V2.93182C15 3.57086 14.4952 4.09091 13.875 4.09091C13.2548 4.09091 12.75 3.57086 12.75 2.93182V1H5.25V2.93182C5.25 3.57086 4.74525 4.09091 4.125 4.09091C3.50475 4.09091 3 3.57086 3 2.93182V1H2.625C1.1775 1 0 2.21318 0 3.70455V5.63636H18Z" fill="#E6E1DD"/>
<path fill-rule="evenodd" clip-rule="evenodd" d="M0 6.40918V15.2955C0 16.7869 1.1775 18.0001 2.625 18.0001H15.375C16.8225 18.0001 18 16.7869 18 15.2955V6.40918H0ZM9 14.1365C9 15.4145 7.9905 16.4546 6.75 16.4546C5.5095 16.4546 4.5 15.4145 4.5 14.1365C4.5 13.9232 4.668 13.7501 4.875 13.7501C5.082 13.7501 5.25 13.9232 5.25 14.1365C5.25 14.9888 5.92275 15.6819 6.75 15.6819C7.57725 15.6819 8.25 14.9888 8.25 14.1365C8.25 13.2841 7.57725 12.591 6.75 12.591H5.625C5.418 12.591 5.25 12.4179 5.25 12.2046C5.25 11.9914 5.418 11.8183 5.625 11.8183H6.75C7.57725 11.8183 8.25 11.1251 8.25 10.2728C8.25 9.4205 7.57725 8.72736 6.75 8.72736C5.92275 8.72736 5.25 9.4205 5.25 10.2728C5.25 10.4861 5.082 10.6592 4.875 10.6592C4.668 10.6592 4.5 10.4861 4.5 10.2728C4.5 8.99472 5.5095 7.95463 6.75 7.95463C7.9905 7.95463 9 8.99472 9 10.2728C9 11.078 8.5995 11.7889 7.99275 12.2046C8.5995 12.6204 9 13.3313 9 14.1365ZM12.375 16.4546C12.582 16.4546 12.75 16.2815 12.75 16.0683V8.341C12.75 8.18491 12.6585 8.0435 12.519 7.984C12.378 7.92373 12.2183 7.95695 12.1103 8.06745L10.6103 9.61291C10.464 9.76359 10.464 10.0085 10.6103 10.1592C10.7565 10.3099 10.9943 10.3099 11.1405 10.1592L12 9.27368V16.0683C12 16.2815 12.168 16.4546 12.375 16.4546Z" fill="#E6E1DD"/>
</svg>
