<svg width="19" height="19" viewBox="0 0 19 19" fill="none" xmlns="http://www.w3.org/2000/svg">
<path d="M14.91 13.7537L11.928 13.0234L11.6846 11.928C12.4149 11.1977 12.9017 10.1023 13.0234 8.82429C13.2669 8.82429 13.5711 8.76343 13.632 8.27657L13.9363 6.75514C13.9971 6.39 13.8754 6.02486 13.6929 5.78143C13.5711 5.65971 13.4494 5.59886 13.3277 5.538V3.77314L13.632 3.46886C14.1189 2.92114 14.5449 2.31257 13.8754 1.33886C13.3886 0.486857 12.354 0 11.076 0H10.8326C10.1631 0 9.06771 0 8.15486 0.608571C5.538 0.669429 4.26 1.64314 4.26 3.65143C4.26 4.01657 4.50343 4.86857 4.62514 5.35543C4.44257 5.41629 4.32086 5.538 4.19914 5.65971C4.01657 5.90314 3.89486 6.20743 3.95571 6.51171L4.13829 8.03314C4.19914 8.52 4.56429 8.88514 5.05114 8.946C5.17286 9.98057 5.72057 11.076 6.45086 11.8063L6.14657 12.9626L3.16457 13.6929C1.278 14.1797 0 15.8837 0 17.8311V18.0137C0 18.1354 0.121714 18.2571 0.304286 18.2571H17.9529C18.1354 18.2571 18.2571 18.1354 18.2571 17.9529C18.2571 16.0663 16.7966 14.1797 14.91 13.7537Z" fill="#E6E1DD"/>
</svg>
