<svg width="297" height="591" viewBox="0 0 297 591" fill="none" xmlns="http://www.w3.org/2000/svg">
<rect x="1.56317" width="293.874" height="591" rx="50" fill="#262D34"/>
<rect x="9.62894" y="7.27637" width="278.524" height="576.447" rx="46.75" stroke="#1B2127" stroke-width="0.5"/>
<path fill-rule="evenodd" clip-rule="evenodd" d="M51.8 17.991C34.1269 17.991 19.8 32.3178 19.8 49.991V543.42C19.8 561.093 34.1269 575.42 51.8 575.42H245.721C263.394 575.42 277.721 561.093 277.721 543.42V49.991C277.721 32.3179 263.394 17.991 245.721 17.991H220.567L205.677 40.6317H93.6439L77.6368 17.991H51.8Z" fill="#E6E1DD"/>
<path fill-rule="evenodd" clip-rule="evenodd" d="M140.658 279.758H156.343C161.447 279.758 165.6 283.909 165.6 289.011V304.688C165.6 309.79 161.447 313.941 156.343 313.941H140.658C135.553 313.941 131.4 309.79 131.4 304.688V289.011C131.4 283.909 135.553 279.758 140.658 279.758ZM157.629 290.891L163.595 297.174V289.011C163.595 285.014 160.342 281.762 156.343 281.762H140.658C136.658 281.762 133.405 285.014 133.405 289.011V301.876L137.798 297.835C138.721 296.985 140.168 296.984 141.092 297.833L145.493 301.87C145.616 301.983 145.754 301.988 145.825 301.981C145.897 301.974 146.031 301.941 146.13 301.806L153.895 291.134C154.322 290.548 154.981 290.185 155.705 290.138C156.43 290.09 157.13 290.365 157.629 290.891Z" fill="#262D34"/>
<path d="M140.946 285.549C139.003 285.549 137.423 287.128 137.423 289.07C137.423 291.012 139.003 292.592 140.946 292.592C142.889 292.592 144.469 291.012 144.469 289.07C144.469 287.128 142.889 285.549 140.946 285.549Z" fill="#262D34"/>
<rect x="0.390789" y="80.8044" width="0.781579" height="22.6398" stroke="#262D34" stroke-width="0.781579"/>
<rect x="0.390789" y="123.744" width="0.781579" height="42.1577" stroke="#262D34" stroke-width="0.781579"/>
<rect x="0.390789" y="178.393" width="0.781579" height="42.1576" stroke="#262D34" stroke-width="0.781579"/>
<rect x="121.926" y="22.6406" width="34.3895" height="6.24571" rx="3.12285" fill="#E6E1DD"/>
<path fill-rule="evenodd" clip-rule="evenodd" d="M170.775 30.4479C173.581 30.4479 175.855 28.1759 175.855 25.3732C175.855 22.5706 173.581 20.2986 170.775 20.2986C167.969 20.2986 165.695 22.5706 165.695 25.3732C165.695 28.1759 167.969 30.4479 170.775 30.4479Z" fill="#E6E1DD"/>
<rect x="295.828" y="138.577" width="0.781586" height="67.1405" stroke="#262D34" stroke-width="0.781586"/>
</svg>
