<svg width="30" height="30" viewBox="0 0 30 30" fill="none" xmlns="http://www.w3.org/2000/svg">
<path fill-rule="evenodd" clip-rule="evenodd" d="M0 15C0 6.729 6.729 0 15 0C23.271 0 30 6.729 30 15C30 23.271 23.271 30 15 30C6.729 30 0 23.271 0 15ZM11.7815 22.913L22.7815 15.413C22.918 15.32 23 15.1655 23 15C23 14.8345 22.918 14.68 22.782 14.587L11.782 7.087C11.6285 6.983 11.4305 6.971 11.2665 7.058C11.1025 7.1445 11 7.3145 11 7.5V22.5C11 22.6855 11.1025 22.8555 11.2665 22.942C11.3395 22.981 11.42 23 11.5 23C11.5985 23 11.697 22.9705 11.7815 22.913Z" fill="#E6E1DD"/>
</svg>
