<svg width="518" height="349" viewBox="0 0 518 349" fill="none" xmlns="http://www.w3.org/2000/svg">
<rect width="518" height="349" rx="27.4074" fill="#E6E1DD"/>
<path fill-rule="evenodd" clip-rule="evenodd" d="M26.0373 177.922C27.9293 177.922 29.4632 176.39 29.4632 174.5C29.4632 172.611 27.9293 171.079 26.0373 171.079C24.1452 171.079 22.6113 172.611 22.6113 174.5C22.6113 176.39 24.1452 177.922 26.0373 177.922Z" fill="#D5CEC8"/>
<path fill-rule="evenodd" clip-rule="evenodd" d="M489.907 187.502C497.097 187.502 502.926 181.681 502.926 174.5C502.926 167.319 497.097 161.498 489.907 161.498C482.718 161.498 476.889 167.319 476.889 174.5C476.889 181.681 482.718 187.502 489.907 187.502Z" fill="#D5CEC8"/>
<rect x="50.0186" y="19.8452" width="413.167" height="309.31" fill="#262D34"/>
<path fill-rule="evenodd" clip-rule="evenodd" d="M250.974 161.498H262.915C266.801 161.498 269.963 164.656 269.963 168.537V180.463C269.963 184.344 266.801 187.502 262.915 187.502H250.974C247.088 187.502 243.926 184.344 243.926 180.463V168.537C243.926 164.656 247.088 161.498 250.974 161.498ZM263.895 169.967L268.437 174.747V168.537C268.437 165.496 265.96 163.023 262.915 163.023H250.974C247.929 163.023 245.452 165.496 245.452 168.537V178.324L248.797 175.25C249.499 174.603 250.601 174.602 251.305 175.248L254.655 178.319C254.749 178.405 254.854 178.409 254.908 178.404C254.963 178.398 255.065 178.374 255.14 178.271L261.052 170.152C261.377 169.706 261.879 169.43 262.43 169.394C262.981 169.358 263.515 169.567 263.895 169.967Z" fill="#E6E1DD"/>
<path d="M251.194 165.903C249.715 165.903 248.511 167.105 248.511 168.582C248.511 170.059 249.715 171.261 251.194 171.261C252.673 171.261 253.876 170.059 253.876 168.582C253.876 167.105 252.673 165.903 251.194 165.903Z" fill="#E6E1DD"/>
</svg>
